# xmcd
#
# Track frame offsets:
#	150
#	6883
#	22652
#	39660
#	53421
#	66101
#	78946
#	86476
#	95968
#	108783
#	117468
#	126249
#	137853
#	149230
#	158763
#	167396
#	178022
#	188957
#	202059
#	214381
#
# Disc length: 3183 seconds
#
# Revision: 1
# Processed by: cddbd v1.5.2PL0 Copyright (c) Steve Scherf et al.
# Submitted via: audiograbber 1.83.01
#
DISCID=1c0c6d14
DTITLE=Caballero Reynaldo - The Grand Kazoo - Unmatched Volume 10
DYEAR=2009
DGENRE=Country
TTITLE0=Lumpy Gravy Theme (Duodenum)
TTITLE1=Pojama People
TTITLE2=The Torture Never Stops
TTITLE3=Eat that Question
TTITLE4=Your Mouth
TTITLE5=Dirty Love
TTITLE6=I'm so Cute
TTITLE7=Big Leg Emma
TTITLE8=Catholic Girls
TTITLE9=Electric Aunt Jemima
TTITLE10=I have been in You
TTITLE11=I Just Might be a One-Shot Deal
TTITLE12=Love of My Life
TTITLE13=Mr. Green Genes
TTITLE14=Bobby Brown Goes Down
TTITLE15=Harder than Your Husband
TTITLE16=Wowie Zowie
TTITLE17=Stick it Out
TTITLE18=Watermelon in Easter Hay (Out of Program)
TTITLE19=Joe's Garage
EXTD=Submitted by Robert Orin Charles Kilroy
EXTT0=
EXTT1=
EXTT2=
EXTT3=
EXTT4=
EXTT5=
EXTT6=
EXTT7=
EXTT8=
EXTT9=
EXTT10=
EXTT11=
EXTT12=
EXTT13=
EXTT14=
EXTT15=
EXTT16=
EXTT17=
EXTT18=
EXTT19=
PLAYORDER=
